<?xml version="1.0" standalone="no"?>
<!DOCTYPE svg PUBLIC "-//W3C//DTD SVG 20010904//EN"
 "http://www.w3.org/TR/2001/REC-SVG-20010904/DTD/svg10.dtd">
<svg version="1.0" xmlns="http://www.w3.org/2000/svg"
 width="600.000000pt" height="600.000000pt" viewBox="0 0 600.000000 600.000000"
 preserveAspectRatio="xMidYMid meet">
<metadata>
Created by potrace 1.14, written by Peter Selinger 2001-2017
</metadata>
<g transform="translate(0.000000,600.000000) scale(0.100000,-0.100000)"
fill="#000000" stroke="none">
<path d="M2945 5775 c-91 -35 -155 -131 -155 -233 0 -100 40 -168 128 -219 37
-22 58 -27 111 -27 76 1 122 18 175 64 127 112 104 301 -47 397 -52 33 -151
41 -212 18z m153 -171 c17 -12 22 -24 22 -58 0 -37 -5 -48 -31 -70 -40 -34
-78 -33 -111 2 -36 38 -40 59 -22 97 25 53 84 64 142 29z"/>
<path d="M2654 5220 c-115 -13 -245 -93 -299 -184 -55 -94 -72 -278 -41 -437
18 -96 84 -294 105 -320 16 -19 23 -17 311 71 218 67 304 89 328 85 18 -3 148
-42 290 -86 141 -45 267 -83 278 -86 19 -4 25 5 52 74 111 290 128 498 54 657
-50 107 -110 162 -224 204 -121 45 -260 36 -396 -28 -35 -16 -70 -30 -76 -30
-7 0 -39 13 -72 29 -95 45 -201 63 -310 51z m198 -171 c50 -13 54 -24 24 -62
-101 -125 -181 -257 -246 -407 -39 -91 -72 -130 -98 -114 -29 19 -64 157 -70
278 -5 123 4 163 48 224 63 87 193 118 342 81z m606 -1 c73 -22 129 -95 151
-196 14 -66 -1 -204 -33 -306 -37 -121 -69 -112 -135 37 -52 116 -133 255
-203 348 -32 42 -58 82 -58 88 0 40 180 59 278 29z m-345 -215 c65 -89 148
-228 162 -272 6 -20 4 -23 -9 -18 -9 4 -66 21 -126 38 l-110 31 -113 -36 c-62
-20 -116 -36 -120 -36 -15 0 -5 22 49 117 71 122 175 263 195 263 4 0 36 -39
72 -87z"/>
<path d="M950 4749 c-33 -14 -40 -26 -40 -79 0 -157 110 -356 252 -454 95 -65
283 -126 389 -126 27 0 29 3 29 38 0 46 -17 109 -32 118 -6 4 -46 13 -90 20
-98 17 -185 60 -253 125 -52 49 -106 137 -119 193 l-7 29 63 -7 c252 -28 395
-132 461 -337 22 -66 25 -96 27 -235 1 -87 2 -163 1 -167 -1 -5 -20 6 -44 23
-85 61 -283 109 -392 96 -170 -22 -279 -127 -278 -267 2 -184 165 -293 340
-227 79 29 117 68 109 110 -14 69 -56 83 -146 48 -68 -27 -94 -25 -119 7 -33
41 -36 68 -11 103 27 37 46 48 110 60 72 14 164 -2 241 -40 107 -53 156 -114
183 -229 8 -34 22 -72 32 -82 23 -25 87 -26 112 -1 25 25 34 177 26 428 -5
137 -4 193 4 198 6 4 45 16 87 27 95 25 171 58 214 94 45 39 91 137 91 195 0
50 -34 131 -70 169 -56 58 -152 76 -226 42 -90 -41 -98 -119 -18 -164 6 -4 35
0 64 9 66 19 80 10 80 -56 0 -41 -4 -52 -30 -74 -17 -14 -63 -35 -103 -46 -40
-12 -77 -23 -84 -25 -17 -6 -34 19 -55 80 -46 137 -162 275 -280 333 -127 62
-179 74 -343 78 -92 2 -160 0 -175 -7z"/>
<path d="M4824 4745 c-233 -52 -392 -191 -469 -411 -13 -36 -25 -68 -28 -71
-10 -9 -141 28 -183 52 -47 28 -69 69 -59 114 10 44 32 53 87 33 43 -15 47
-15 72 2 63 41 53 111 -20 147 -67 32 -113 35 -170 10 -64 -29 -82 -46 -110
-106 -28 -60 -32 -147 -9 -203 19 -45 88 -117 135 -141 42 -22 151 -57 203
-66 l37 -6 0 -299 c0 -285 1 -301 20 -320 40 -40 107 -40 127 0 7 14 19 50 28
81 43 160 192 264 375 263 111 0 170 -39 170 -110 0 -63 -75 -92 -153 -59 -78
33 -137 7 -137 -59 0 -67 94 -120 215 -121 143 0 244 112 233 260 -9 110 -77
196 -183 232 -68 23 -229 22 -310 -1 -70 -21 -151 -60 -182 -89 -13 -11 -26
-17 -30 -13 -4 4 -8 71 -10 150 -3 160 15 262 62 342 38 65 118 147 172 176
67 37 186 68 260 68 l63 0 -17 -42 c-42 -108 -118 -190 -228 -247 -41 -21
-183 -61 -216 -61 -21 0 -39 -53 -39 -117 0 -42 1 -43 34 -43 46 0 161 25 232
50 85 29 158 77 233 150 80 80 123 163 153 296 24 106 19 140 -22 161 -33 17
-256 15 -336 -2z"/>
<path d="M2985 4254 c-27 -7 -135 -40 -240 -73 -104 -34 -311 -97 -460 -141
-148 -45 -280 -85 -292 -90 l-23 -10 0 -862 c0 -950 -1 -935 62 -1072 47 -101
138 -208 232 -272 31 -21 349 -200 601 -338 121 -66 134 -71 190 -71 58 0 67
4 325 146 376 208 458 255 516 299 63 48 136 143 180 235 64 133 64 135 64
1080 0 543 -4 856 -10 860 -5 3 -69 23 -142 44 -73 21 -286 83 -473 139 -506
150 -471 142 -530 126z m145 -184 c116 -31 817 -241 829 -248 12 -7 14 -134
12 -817 -1 -517 -6 -824 -12 -850 -30 -114 -119 -231 -231 -302 -75 -48 -538
-307 -620 -347 l-57 -28 -43 25 c-24 13 -74 41 -113 62 -38 21 -119 66 -180
100 -199 113 -313 175 -320 175 -3 0 -33 20 -64 45 -67 51 -141 153 -173 240
l-23 60 -3 817 -3 816 48 15 c26 9 174 55 328 102 154 48 334 104 400 124 124
38 125 39 225 11z"/>
<path d="M3000 3808 c-61 -30 -170 -141 -203 -207 l-27 -55 -97 -1 c-102 -2
-189 -22 -218 -51 -24 -24 -20 -168 6 -246 26 -78 78 -156 137 -208 48 -43
144 -93 200 -105 l32 -7 0 81 0 80 -47 21 c-92 40 -167 135 -179 224 -6 43 -5
45 21 52 42 11 132 -4 184 -31 66 -33 137 -114 156 -178 12 -41 15 -120 15
-424 l0 -373 -155 0 -155 0 0 -80 0 -80 155 0 155 0 0 -75 0 -75 -155 0 -155
0 0 -80 0 -80 235 0 235 0 0 505 0 505 53 0 c74 0 176 24 238 56 76 38 173
138 209 216 37 79 55 185 43 253 -8 50 -9 50 -68 75 -50 20 -77 24 -161 25
l-101 0 -32 61 c-38 73 -116 155 -185 195 -61 35 -78 36 -136 7z m123 -200
c29 -29 58 -71 66 -92 12 -36 12 -40 -5 -49 -11 -5 -43 -34 -71 -63 l-53 -54
-52 54 c-29 29 -62 58 -72 64 -20 10 -20 10 -1 53 20 43 107 139 126 139 6 0
34 -24 62 -52z m381 -224 c41 -16 -3 -144 -71 -209 -55 -54 -109 -75 -210 -82
l-86 -6 7 44 c16 101 91 193 192 234 56 23 134 32 168 19z"/>
<path d="M1378 3367 c-171 -65 -278 -221 -278 -407 0 -183 105 -341 355 -535
114 -89 175 -173 175 -243 0 -53 -6 -64 -37 -81 -32 -16 -68 -14 -86 7 -24 26
-21 39 12 77 35 40 32 74 -11 110 -52 44 -101 28 -150 -49 -28 -42 -33 -60
-32 -104 2 -68 42 -135 108 -179 42 -29 57 -33 110 -33 189 2 295 146 241 328
-33 110 -145 244 -280 335 -89 61 -168 146 -206 224 -30 60 -34 77 -34 148 0
69 4 86 27 125 84 143 236 173 345 68 75 -73 40 -188 -57 -188 -19 0 -48 9
-65 20 -61 41 -135 12 -135 -52 0 -47 38 -130 84 -187 58 -70 127 -117 201
-136 126 -32 190 -12 188 60 -2 53 -25 71 -117 90 -117 23 -121 30 -45 65 91
43 142 131 142 245 0 122 -64 219 -181 272 -68 32 -214 42 -274 20z"/>
<path d="M4470 3358 c-78 -30 -154 -110 -176 -185 -21 -72 -15 -173 14 -228
25 -50 74 -96 130 -124 23 -12 40 -25 38 -30 -3 -4 -40 -14 -83 -21 -93 -15
-119 -29 -128 -70 -5 -24 -1 -38 20 -65 23 -31 31 -35 73 -35 149 0 279 83
345 219 69 144 17 232 -103 171 -78 -40 -141 -12 -156 67 -16 85 64 160 173
162 154 3 265 -153 233 -325 -22 -113 -95 -204 -250 -309 -38 -26 -90 -65
-115 -87 -92 -81 -165 -223 -165 -321 0 -131 108 -247 230 -247 162 0 268 164
201 314 -30 70 -94 95 -143 56 -35 -27 -39 -51 -17 -100 24 -53 24 -65 -1 -90
-67 -67 -131 37 -87 142 21 51 119 151 211 216 139 98 232 205 278 321 31 79
31 240 -1 323 -47 123 -146 221 -255 253 -73 22 -199 19 -266 -7z"/>
<path d="M1874 1910 c-37 -15 -128 -77 -178 -121 -139 -123 -197 -337 -136
-504 36 -101 36 -101 0 -109 -69 -13 -169 -7 -211 14 -39 21 -74 64 -85 108
-14 53 43 112 110 112 39 0 66 33 66 79 0 51 -18 64 -94 69 -52 3 -69 -1 -116
-25 -97 -50 -150 -164 -125 -271 23 -99 109 -195 210 -234 90 -35 242 -31 353
8 40 15 44 15 80 -6 129 -77 320 -80 440 -7 97 59 151 126 175 219 10 37 18
52 29 50 28 -4 223 -114 267 -149 59 -49 81 -88 81 -145 0 -63 -14 -94 -51
-117 -32 -20 -48 -18 -85 9 -38 28 -47 57 -33 107 11 40 10 47 -8 71 -11 15
-36 31 -58 37 -34 8 -40 7 -61 -18 -26 -31 -44 -86 -44 -137 2 -123 121 -240
244 -240 75 0 118 16 168 60 68 60 91 121 86 234 -2 71 -8 101 -26 136 -53
102 -162 182 -423 311 -152 75 -213 49 -230 -97 -10 -94 -30 -129 -101 -178
-49 -34 -65 -39 -127 -44 -65 -4 -77 -2 -135 27 -104 51 -156 145 -156 279 0
83 28 147 99 222 75 80 91 67 91 -75 0 -91 -31 -193 -74 -250 -14 -18 -26 -40
-26 -47 0 -19 70 -84 98 -91 28 -7 63 27 99 98 68 131 82 317 38 491 -17 68
-32 105 -46 117 -22 18 -70 21 -105 7z"/>
<path d="M4131 1894 c-26 -33 -38 -74 -56 -189 -19 -117 -18 -162 3 -265 12
-61 30 -108 61 -163 50 -86 68 -94 129 -57 43 26 57 63 37 98 -70 126 -91 215
-78 322 6 49 12 66 25 68 24 5 100 -76 132 -140 22 -44 26 -65 26 -143 0 -78
-4 -98 -26 -144 -101 -202 -398 -198 -474 7 -13 34 -18 66 -15 86 7 38 -24 92
-61 106 -52 20 -91 11 -201 -46 -175 -92 -265 -149 -325 -208 -49 -47 -60 -65
-79 -126 -63 -207 51 -394 239 -391 143 2 242 105 242 252 0 130 -78 191 -151
118 -19 -19 -21 -29 -15 -88 3 -36 3 -71 -1 -77 -11 -16 -69 -44 -91 -44 -48
0 -90 86 -78 157 11 58 97 135 236 211 70 38 118 58 123 53 5 -5 18 -35 29
-67 33 -98 96 -168 199 -221 50 -26 62 -28 169 -28 104 0 121 3 180 29 86 37
109 41 161 23 68 -23 195 -31 265 -17 160 33 277 157 278 295 0 79 -18 129
-66 181 -71 78 -200 103 -254 49 -19 -19 -23 -31 -18 -52 13 -52 33 -72 81
-79 54 -8 103 -46 103 -80 0 -58 -72 -137 -137 -151 -53 -11 -173 -7 -186 6
-8 8 -5 29 12 78 85 247 -14 491 -250 621 -92 51 -137 55 -168 16z"/>
<path d="M2965 729 c-47 -13 -101 -64 -129 -121 -33 -66 -36 -160 -7 -216 25
-49 87 -107 133 -127 83 -34 197 -10 270 58 118 110 83 324 -66 393 -54 25
-141 31 -201 13z m149 -170 c37 -29 37 -88 -1 -124 -15 -14 -35 -26 -43 -26
-60 -5 -90 21 -97 83 -5 40 -2 47 22 66 35 28 85 28 119 1z"/>
</g>
</svg>
