<?xml version="1.0" encoding="UTF-8" standalone="no"?>
<svg
   width="263.48001"
   height="50.007999"
   viewBox="0 0 69.712 13.231"
   xml:space="preserve"
   version="1.1"
   id="svg31"
   sodipodi:docname="brand.svg"
   inkscape:export-filename="../hugo/static/images/brand2.svg"
   inkscape:export-xdpi="96"
   inkscape:export-ydpi="96"
   xmlns:inkscape="http://www.inkscape.org/namespaces/inkscape"
   xmlns:sodipodi="http://sodipodi.sourceforge.net/DTD/sodipodi-0.dtd"
   xmlns:xlink="http://www.w3.org/1999/xlink"
   xmlns="http://www.w3.org/2000/svg"
   xmlns:svg="http://www.w3.org/2000/svg"><sodipodi:namedview
     id="namedview33"
     pagecolor="#ffffff"
     bordercolor="#000000"
     borderopacity="0.25"
     inkscape:showpageshadow="2"
     inkscape:pageopacity="0.0"
     inkscape:pagecheckerboard="0"
     inkscape:deskcolor="#d1d1d1"
     showgrid="false"
     inkscape:zoom="4.8770303"
     inkscape:cx="148.34847"
     inkscape:cy="57.924594"
     inkscape:window-width="1920"
     inkscape:window-height="1080"
     inkscape:window-x="0"
     inkscape:window-y="0"
     inkscape:window-maximized="1"
     inkscape:current-layer="svg31" /><defs
     id="defs3"><linearGradient
       inkscape:collect="always"
       id="linearGradient905"><stop
         style="stop-color:#0baa63;stop-opacity:1;"
         offset="0"
         id="stop901" /><stop
         style="stop-color:#2b866a;stop-opacity:1;"
         offset="1"
         id="stop903" /></linearGradient><path
       id="a"
       d="m 109.637,280.816 h 545.355 v 279.74 H 109.637 Z" /><linearGradient
       inkscape:collect="always"
       xlink:href="#linearGradient905"
       id="linearGradient907"
       x1="240.27"
       y1="312.16101"
       x2="503.75119"
       y2="312.16101"
       gradientUnits="userSpaceOnUse" /><filter
       style="color-interpolation-filters:sRGB"
       inkscape:label="Drop Shadow"
       id="filter1678"
       x="-0.013663214"
       y="-0.071988478"
       width="1.0311219"
       height="1.1639738"><feFlood
         flood-opacity="0.498039"
         flood-color="rgb(130,130,130)"
         result="flood"
         id="feFlood1668" /><feComposite
         in="SourceGraphic"
         in2="flood"
         operator="in"
         result="composite1"
         id="feComposite1670" /><feGaussianBlur
         in="composite1"
         stdDeviation="1.5"
         result="blur"
         id="feGaussianBlur1672" /><feOffset
         dx="1"
         dy="1"
         result="offset"
         id="feOffset1674" /><feComposite
         in="SourceGraphic"
         in2="offset"
         operator="over"
         result="composite2"
         id="feComposite1676" /></filter><linearGradient
       inkscape:collect="always"
       xlink:href="#linearGradient905"
       id="linearGradient1924"
       gradientUnits="userSpaceOnUse"
       x1="240.27"
       y1="312.16101"
       x2="503.75119"
       y2="312.16101" /><linearGradient
       inkscape:collect="always"
       xlink:href="#linearGradient905"
       id="linearGradient1926"
       gradientUnits="userSpaceOnUse"
       x1="240.27"
       y1="312.16101"
       x2="503.75119"
       y2="312.16101" /><linearGradient
       inkscape:collect="always"
       xlink:href="#linearGradient905"
       id="linearGradient1928"
       gradientUnits="userSpaceOnUse"
       x1="240.27"
       y1="312.16101"
       x2="503.75119"
       y2="312.16101" /><linearGradient
       inkscape:collect="always"
       xlink:href="#linearGradient905"
       id="linearGradient1930"
       gradientUnits="userSpaceOnUse"
       x1="240.27"
       y1="312.16101"
       x2="503.75119"
       y2="312.16101" /><linearGradient
       inkscape:collect="always"
       xlink:href="#linearGradient905"
       id="linearGradient1932"
       gradientUnits="userSpaceOnUse"
       x1="240.27"
       y1="312.16101"
       x2="503.75119"
       y2="312.16101" /><linearGradient
       inkscape:collect="always"
       xlink:href="#linearGradient905"
       id="linearGradient1934"
       gradientUnits="userSpaceOnUse"
       x1="240.27"
       y1="312.16101"
       x2="503.75119"
       y2="312.16101" /><linearGradient
       inkscape:collect="always"
       xlink:href="#linearGradient905"
       id="linearGradient1936"
       gradientUnits="userSpaceOnUse"
       x1="240.27"
       y1="312.16101"
       x2="503.75119"
       y2="312.16101" /><linearGradient
       inkscape:collect="always"
       xlink:href="#linearGradient905"
       id="linearGradient1938"
       gradientUnits="userSpaceOnUse"
       x1="240.27"
       y1="312.16101"
       x2="503.75119"
       y2="312.16101" /><linearGradient
       inkscape:collect="always"
       xlink:href="#linearGradient905"
       id="linearGradient1940"
       gradientUnits="userSpaceOnUse"
       x1="240.27"
       y1="312.16101"
       x2="503.75119"
       y2="312.16101" /><linearGradient
       inkscape:collect="always"
       xlink:href="#linearGradient905"
       id="linearGradient1942"
       gradientUnits="userSpaceOnUse"
       x1="240.27"
       y1="312.16101"
       x2="503.75119"
       y2="312.16101" /><linearGradient
       inkscape:collect="always"
       xlink:href="#linearGradient905"
       id="linearGradient1944"
       gradientUnits="userSpaceOnUse"
       x1="240.27"
       y1="312.16101"
       x2="503.75119"
       y2="312.16101" /><linearGradient
       inkscape:collect="always"
       xlink:href="#linearGradient905"
       id="linearGradient1946"
       gradientUnits="userSpaceOnUse"
       x1="240.27"
       y1="312.16101"
       x2="503.75119"
       y2="312.16101" /></defs><g
     aria-label="the Articulate"
     transform="matrix(0.26458,0,0,0.26458,-63.572,-75.977)"
     style="font-weight:700;font-size:3px;font-family:'Helvetica Neue';-inkscape-font-specification:'Helvetica Neue, Bold';text-align:center;white-space:pre;shape-inside:url(#a);opacity:0.97;fill:url(#linearGradient907);fill-opacity:1;filter:url(#filter1678)"
     id="g29"><path
       d="m 281.766,301.885 c -0.896,2.744 -3.304,3.696 -6.496,3.696 -1.68,0 -3.64,-0.28 -5.6,-0.728 v -0.896 c -0.056,-0.896 -0.28,-2.576 -0.392,-2.968 -0.168,-0.56 -0.784,-1.232 -1.624,-1.232 -0.392,0 -0.84,0.168 -1.288,0.672 -0.84,0.896 -1.456,2.016 -1.848,3.136 -0.784,-0.224 -1.512,-0.448 -2.24,-0.672 -4.368,-1.288 -8.792,-2.744 -12.824,-2.744 -3.36,0 -6.384,1.008 -8.848,3.864 -0.224,0.28 -0.336,0.56 -0.336,0.84 0,0.672 0.56,1.12 1.12,1.12 0.336,0 0.672,-0.112 0.896,-0.448 1.904,-2.744 4.536,-3.696 7.616,-3.696 3.472,0 7.616,1.232 11.928,2.576 l 2.184,0.672 c -0.28,1.008 -0.392,1.792 -0.448,1.96 -0.28,1.512 -0.392,3.248 -0.392,5.04 0,8.344 2.8,18.48 8.12,19.936 0.28,0.056 0.504,0.112 0.784,0.112 4.48,0 4.704,-12.432 6.328,-16.128 0.056,-0.168 0.112,-0.28 0.112,-0.392 0,-0.504 -0.448,-0.84 -0.896,-0.84 -0.28,0 -0.56,0.112 -0.728,0.336 -0.896,1.12 -2.408,13.384 -4.536,14.896 -0.056,0 -0.112,0.056 -0.112,0.056 -0.056,0 -0.112,-0.112 -0.224,-0.28 -1.96,-3.472 -2.184,-18.872 -2.24,-22.904 0,-0.112 0,-0.28 -0.056,-0.448 2.184,0.448 4.368,0.728 6.328,0.728 4.2,0 7.448,-1.288 8.176,-5.04 v -0.168 c 0,-0.56 -0.616,-1.064 -1.232,-1.064 -0.504,0 -1.008,0.28 -1.232,1.008 z"
       style="font-weight:400;font-size:56px;font-family:brimstone;-inkscape-font-specification:'brimstone, Normal';fill:url(#linearGradient1924);fill-opacity:1"
       id="path5" /><path
       d="m 298.678,315.325 c -1.288,2.296 -4.312,16.296 -7.616,19.6 -0.28,-1.008 -0.392,-2.128 -0.392,-3.304 0,-5.544 2.52,-12.6 2.52,-16.912 0,-0.56 -0.056,-1.12 -0.168,-1.568 -0.28,-1.176 -0.952,-2.072 -1.96,-2.52 -0.504,-0.224 -0.952,-0.336 -1.344,-0.336 -1.68,0 -2.688,1.68 -3.92,3.584 -2.52,3.752 -3.64,6.72 -3.64,6.72 -0.336,0 -0.784,-8.792 -0.784,-9.128 l 0.448,-0.28 c 1.624,-1.008 4.032,-3.416 5.544,-5.488 2.296,-3.248 3.752,-7.56 3.752,-10.864 0,-0.784 -0.112,-1.568 -0.28,-2.24 -0.616,-2.184 -2.296,-3.416 -4.312,-3.416 -0.616,0 -1.232,0.112 -1.848,0.336 -6.048,2.072 -9.184,11.928 -9.184,22.344 0,5.6 0.896,11.312 2.744,16.128 0.448,1.12 1.568,1.68 2.632,1.68 1.232,0 2.296,-0.728 2.296,-2.296 v -0.336 c -0.056,-0.784 -0.112,-1.232 -0.112,-1.568 0,-0.336 0.056,-0.56 0.112,-0.896 0.784,-3.584 2.688,-7.056 3.136,-7.616 -0.224,0.616 -0.672,3.92 -0.672,7.672 0,5.432 0.896,11.872 4.592,12.488 0.168,0.056 0.336,0.056 0.504,0.056 4.872,0 6.552,-12.88 9.8,-21.336 0.056,-0.112 0.056,-0.224 0.056,-0.28 0,-0.448 -0.448,-0.784 -0.952,-0.784 a 1.1,1.1 0 0 0 -0.952,0.56 z m -17.136,-7.616 c 0.448,-4.704 1.68,-14.392 6.048,-16.128 0.896,1.008 1.288,2.408 1.288,3.976 0,3.304 -1.68,7.224 -3.64,9.8 a 19.32,19.32 0 0 1 -3.304,3.472 l -0.448,0.336 c 0,0 -0.056,-0.056 -0.056,-0.168 0,-0.224 0.056,-0.616 0.112,-1.288 z"
       style="font-weight:400;font-size:56px;font-family:brimstone;-inkscape-font-specification:'brimstone, Normal';fill:url(#linearGradient1926);fill-opacity:1"
       id="path7" /><path
       d="m 313.742,314.99 c -0.168,-0.225 -0.448,-0.28 -0.728,-0.28 -0.224,0 -0.448,0.055 -0.616,0.223 -0.728,0.728 -4.424,12.04 -8.12,12.04 -0.224,0 -0.448,0 -0.672,-0.112 -1.232,-0.448 -1.568,-2.352 -1.568,-4.312 0,-1.512 0.168,-3.08 0.336,-4.088 4.144,0 6.608,-3.024 6.608,-5.656 0,-1.792 -1.12,-3.36 -3.528,-3.808 -0.392,-0.056 -0.784,-0.112 -1.176,-0.112 -4.928,0 -7.784,5.432 -7.784,10.64 0,4.256 1.904,8.344 6.16,9.352 0.392,0.112 0.728,0.112 1.064,0.112 4.648,0 7.784,-7.224 9.8,-12.432 0.28,-0.616 0.392,-0.952 0.392,-1.176 a 0.508,0.508 0 0 0 -0.168,-0.392 z m -8.736,-3.529 c 0.224,-0.112 0.448,-0.224 0.672,-0.224 0.336,0 0.672,0.168 0.84,0.448 0.28,0.448 0.448,0.896 0.448,1.344 0,1.96 -2.408,3.808 -3.752,3.808 -0.168,0 -0.392,-0.056 -0.504,-0.168 v -0.112 c 0,-0.728 1.176,-4.2 2.296,-5.096 z m 65.744,3.864 c 0,0.056 -4.872,12.824 -5.656,14.448 -1.064,2.24 -1.904,3.192 -2.464,3.192 -1.064,0 -1.456,-2.856 -1.456,-6.72 0,-3.696 0.392,-8.344 0.896,-12.376 0.504,-3.92 1.344,-9.352 1.344,-14.28 0,-5.432 -1.008,-10.304 -4.592,-11.984 -0.672,-0.336 -1.344,-0.448 -2.072,-0.448 -4.76,0 -10.472,6.048 -12.992,10.248 -2.856,4.704 -4.424,9.632 -5.6,17.416 -0.28,1.848 -0.112,1.456 -1.232,2.128 -4.536,3.024 -6.16,7.336 -6.16,10.976 0,3.192 1.232,5.824 2.8,6.608 0.448,0.224 0.84,0.336 1.176,0.336 3.584,0 3.752,-10.248 4.816,-17.08 0.112,-0.784 4.032,-1.904 7.84,-1.904 0.784,0 1.568,0.056 2.296,0.168 1.456,0.168 4.2,0.84 4.368,1.008 0,0 0.112,4.088 0.56,6.552 0.672,4.032 3.192,10.64 6.832,11.592 0.224,0.056 0.504,0.112 0.728,0.112 5.208,0 7.784,-14.56 10.192,-19.152 0.056,-0.112 0.112,-0.28 0.112,-0.392 0,-0.448 -0.448,-0.784 -0.952,-0.784 -0.28,0 -0.56,0.112 -0.784,0.336 z m -34.272,11.816 c -0.504,3.528 -0.952,4.984 -1.68,5.768 -0.056,0.056 -0.112,0.112 -0.224,0.112 -0.616,0 -1.68,-2.072 -1.68,-4.928 0,-2.24 0.672,-4.928 2.8,-7.448 0.56,-0.616 1.68,-1.736 1.848,-1.736 0,0.448 -0.784,6.496 -1.064,8.232 z m 17.696,-12.6 c 0,0.56 0,0.672 -0.056,0.672 h -0.056 c -1.68,-0.672 -4.312,-1.008 -6.944,-1.008 -2.296,0 -4.592,0.224 -6.272,0.84 -0.336,0.112 -0.56,0.224 -0.672,0.224 -0.112,0 -0.168,-0.056 -0.168,-0.28 0,-0.504 0.224,-1.624 0.728,-4.088 3.192,-16.016 12.488,-21.392 15.12,-21.392 0.672,0 0.896,0.728 0.896,1.96 0,3.976 -2.576,13.496 -2.576,23.072 z"
       style="font-weight:400;font-size:56px;font-family:brimstone;-inkscape-font-specification:'brimstone, Normal';fill:url(#linearGradient1928);fill-opacity:1"
       id="path9" /><path
       d="m 384.974,315.325 c -0.168,-0.28 -0.56,-0.448 -0.896,-0.448 -0.168,0 -0.336,0 -0.504,0.112 -0.28,0.224 -0.336,0.28 -0.672,1.624 -0.504,1.848 -2.688,9.576 -4.144,10.808 a 0.425,0.425 0 0 1 -0.224,0.112 c -0.392,0 -0.504,-1.344 -0.504,-3.136 0,-2.632 0.28,-6.272 0.28,-8.064 0,-0.616 -0.056,-1.008 -0.112,-1.12 -0.28,-0.448 -0.784,-0.84 -1.568,-0.84 -0.504,0 -1.12,0.168 -1.848,0.672 -0.84,-0.896 -1.176,-1.12 -1.176,-1.4 0,-0.168 0.112,-0.336 0.28,-0.616 1.68,-2.576 2.688,-5.936 2.688,-8.68 0,-2.128 -0.616,-3.864 -1.848,-4.592 -0.392,-0.224 -0.896,-0.336 -1.456,-0.336 -1.064,0 -2.296,0.448 -3.584,1.68 -1.624,1.624 -3.024,4.312 -3.024,7.28 0,2.912 1.344,5.992 5.04,8.568 0.336,0.224 0.672,0.448 0.672,0.504 0,0 -0.056,0.84 -0.056,1.904 0,0.672 0,1.456 0.112,2.128 0.504,4.648 2.352,7.672 4.872,8.12 0.28,0.056 0.504,0.056 0.728,0.056 2.576,0 3.472,-2.408 4.424,-5.32 0.224,-0.504 2.52,-7.728 2.52,-8.904 z m -11.816,-4.872 c -0.224,0.448 -0.392,0.84 -0.448,0.896 -0.056,0.056 -0.056,0.056 -0.112,0.056 -0.224,0 -0.392,-1.176 -0.392,-2.8 0,-2.072 0.28,-4.816 1.344,-6.496 l 0.224,-0.336 c 0.28,0 0.728,1.176 0.728,2.968 0,1.512 -0.336,3.528 -1.344,5.712 z"
       style="font-weight:400;font-size:56px;font-family:brimstone;-inkscape-font-specification:'brimstone, Normal';fill:url(#linearGradient1930);fill-opacity:1"
       id="path11" /><path
       d="m 400.654,301.885 c -0.896,2.744 -3.304,3.696 -6.496,3.696 -1.68,0 -3.64,-0.28 -5.6,-0.728 v -0.896 c -0.056,-0.896 -0.28,-2.576 -0.392,-2.968 -0.168,-0.56 -0.784,-1.232 -1.624,-1.232 -0.392,0 -0.84,0.168 -1.288,0.672 -0.84,0.896 -1.456,2.016 -1.848,3.136 -0.784,-0.224 -1.512,-0.448 -2.24,-0.672 -4.368,-1.288 -8.792,-2.744 -12.824,-2.744 -3.36,0 -6.384,1.008 -8.848,3.864 -0.224,0.28 -0.336,0.56 -0.336,0.84 0,0.672 0.56,1.12 1.12,1.12 0.336,0 0.672,-0.112 0.896,-0.448 1.904,-2.744 4.536,-3.696 7.616,-3.696 3.472,0 7.616,1.232 11.928,2.576 l 2.184,0.672 c -0.28,1.008 -0.392,1.792 -0.448,1.96 -0.28,1.512 -0.392,3.248 -0.392,5.04 0,8.344 2.8,18.48 8.12,19.936 0.28,0.056 0.504,0.112 0.784,0.112 4.48,0 4.704,-12.432 6.328,-16.128 0.056,-0.168 0.112,-0.28 0.112,-0.392 0,-0.504 -0.448,-0.84 -0.896,-0.84 -0.28,0 -0.56,0.112 -0.728,0.336 -0.896,1.12 -2.408,13.384 -4.536,14.896 -0.056,0 -0.112,0.056 -0.112,0.056 -0.056,0 -0.112,-0.112 -0.224,-0.28 -1.96,-3.472 -2.184,-18.872 -2.24,-22.904 0,-0.112 0,-0.28 -0.056,-0.448 2.184,0.448 4.368,0.728 6.328,0.728 4.2,0 7.448,-1.288 8.176,-5.04 v -0.168 c 0,-0.56 -0.616,-1.064 -1.232,-1.064 -0.504,0 -1.008,0.28 -1.232,1.008 z"
       style="font-weight:400;font-size:56px;font-family:brimstone;-inkscape-font-specification:'brimstone, Normal';fill:url(#linearGradient1932);fill-opacity:1"
       id="path13" /><path
       d="m 406.535,315.101 c -0.336,3.024 -2.128,13.776 -4.312,13.776 -1.68,0 -2.072,-4.704 -2.072,-9.296 0,-3.192 0.168,-6.384 0.168,-7.784 v -0.672 c -0.224,-1.68 -1.288,-2.352 -2.352,-2.352 -0.336,0 -0.672,0.056 -0.952,0.168 -0.952,0.336 -1.456,1.12 -1.904,2.912 a 21.987,21.987 0 0 0 -0.672,5.32 c 0,7 3.472,12.768 6.608,13.552 0.28,0.056 0.56,0.112 0.84,0.112 0.504,0 0.952,-0.112 1.4,-0.336 3.08,-1.512 4.48,-12.992 4.592,-15.176 v -0.056 c 0,-0.392 -0.392,-0.616 -0.784,-0.616 -0.28,0 -0.56,0.112 -0.56,0.448 z m -9.128,-7.616 c 0.28,0.056 0.504,0.112 0.728,0.112 1.568,0 2.856,-1.4 3.024,-2.408 v -0.392 c 0,-1.568 -1.4,-2.52 -2.744,-2.52 -1.12,0 -2.184,0.56 -2.576,1.792 a 3.171,3.171 0 0 0 -0.168,1.008 c 0,1.064 0.616,2.016 1.736,2.408 z"
       style="font-weight:400;font-size:56px;font-family:brimstone;-inkscape-font-specification:'brimstone, Normal';fill:url(#linearGradient1934);fill-opacity:1"
       id="path15" /><path
       d="m 421.879,315.101 c -3.976,6.272 -10.416,12.712 -11.424,12.712 -0.056,0 -0.112,0 -0.112,-0.056 -0.448,-0.616 -0.672,-1.792 -0.672,-3.304 0,-3.752 1.4,-9.24 4.368,-11.48 0.112,-0.056 0.224,-0.112 0.28,-0.112 0.168,0 0.168,0.224 0.168,0.728 v 1.456 c 0.392,0.336 0.728,0.504 1.064,0.504 a 0.9,0.9 0 0 0 0.616,-0.28 c 0.392,-0.448 0.672,-1.288 0.672,-2.128 0,-1.68 -1.008,-3.528 -3.696,-3.528 -5.768,0 -9.072,7.112 -9.072,13.048 0,3.808 1.344,7.112 4.256,7.896 0.224,0.056 0.448,0.112 0.672,0.112 3.752,0 10.08,-8.12 14.448,-14.672 0.112,-0.168 0.168,-0.28 0.168,-0.448 0,-0.448 -0.504,-0.784 -1.008,-0.784 -0.224,0 -0.504,0.112 -0.728,0.336 z"
       style="font-weight:400;font-size:56px;font-family:brimstone;-inkscape-font-specification:'brimstone, Normal';fill:url(#linearGradient1936);fill-opacity:1"
       id="path17" /><path
       d="m 443.886,315.493 c 0,0.784 -4.032,13.608 -5.04,13.608 -0.112,0 -0.448,-1.288 -0.616,-2.464 -0.84,-6.104 0.224,-13.496 -1.848,-16.072 -0.392,-0.504 -1.176,-0.896 -2.016,-0.896 -0.784,0 -1.624,0.392 -2.184,1.512 -0.952,1.96 -1.008,3.696 -1.008,6.552 v 0.896 c -1.456,2.856 -2.856,5.768 -4.032,6.72 -0.112,0.112 -0.224,0.168 -0.28,0.168 -0.112,0 -0.168,-0.112 -0.28,-0.504 -0.28,-0.84 -0.392,-2.016 -0.392,-3.36 0,-2.352 0.28,-5.096 0.448,-6.664 0.168,-1.624 0.224,-2.52 0.224,-3.192 0,-0.336 0,-0.616 -0.056,-0.896 -0.28,-2.072 -1.568,-3.08 -2.856,-3.08 -0.952,0 -1.848,0.504 -2.464,1.4 -0.952,1.456 -1.456,4.088 -1.456,6.888 0,4.984 1.568,10.64 5.264,11.872 0.448,0.168 0.896,0.224 1.288,0.224 1.792,0 3.248,-1.568 4.816,-5.208 0.112,-0.224 0.224,-0.448 0.28,-0.448 0,0 0.112,0.448 0.28,1.008 0.728,3.136 2.8,7.504 5.992,8.288 h -0.056 c 0.224,0.056 0.448,0.112 0.672,0.112 1.96,0 3.024,-2.464 3.752,-4.536 0.728,-1.904 3.192,-10.304 3.416,-11.256 0,-0.112 0.056,-0.28 0.056,-0.392 0,-0.784 -0.56,-1.176 -1.064,-1.176 -0.392,0 -0.84,0.28 -0.84,0.896 z"
       style="font-weight:400;font-size:56px;font-family:brimstone;-inkscape-font-specification:'brimstone, Normal';fill:url(#linearGradient1938);fill-opacity:1"
       id="path19" /><path
       d="m 459.623,314.933 c -0.504,0.056 -0.728,0.336 -1.008,1.008 -0.896,2.408 -3.304,9.408 -5.432,10.472 a 1.08,1.08 0 0 1 -0.56,0.168 c -2.632,0 -3.64,-9.968 -3.752,-13.496 0.112,0 0.224,0.056 0.392,0.056 3.696,0 9.688,-9.184 9.688,-16.24 0,-2.632 -1.064,-4.704 -2.968,-5.6 -0.672,-0.336 -1.456,-0.504 -2.296,-0.504 -1.568,0 -3.36,0.616 -5.208,2.184 -4.2,3.584 -5.936,10.024 -5.936,16.464 0,9.016 3.472,18.088 8.4,19.376 0.392,0.112 0.728,0.168 1.064,0.168 1.568,0 3.024,-0.896 4.2,-2.408 0.952,-1.344 3.36,-6.888 4.48,-10.696 0,-0.056 0.056,-0.112 0.056,-0.224 0,-0.392 -0.448,-0.728 -0.952,-0.728 z m -5.936,-21.504 c 0.224,-0.112 0.448,-0.168 0.672,-0.168 0.728,0 1.4,0.56 1.904,1.568 0.392,0.84 0.56,1.792 0.56,2.8 0,5.768 -5.432,13.664 -7.672,13.664 -0.056,0 -0.168,-0.056 -0.224,-0.056 -0.112,-0.056 -0.168,-0.448 -0.168,-1.176 0,-3.696 1.736,-15.12 4.928,-16.632 z"
       style="font-weight:400;font-size:56px;font-family:brimstone;-inkscape-font-specification:'brimstone, Normal';fill:url(#linearGradient1940);fill-opacity:1"
       id="path21" /><path
       d="m 476.983,315.941 c -0.056,-0.784 -0.616,-1.176 -1.064,-1.176 -0.28,0 -0.56,0.112 -0.672,0.392 -0.056,0.056 -0.112,0.504 -0.112,1.064 -0.056,1.512 -1.68,15.96 -3.192,15.96 -2.184,0 -0.168,-17.248 -2.52,-18.256 -0.168,-0.112 -0.28,-0.224 -0.504,-0.784 -0.728,-1.456 -1.68,-2.296 -3.08,-2.688 a 5.78,5.78 0 0 0 -1.68,-0.224 c -4.984,0 -8.68,6.328 -8.68,11.76 0,3.024 1.12,5.824 3.752,7.112 0.616,0.28 1.176,0.448 1.736,0.448 2.408,0 3.752,-2.912 4.648,-4.704 0.56,3.304 2.352,9.184 5.768,9.744 0.168,0.056 0.336,0.056 0.504,0.056 2.296,0 3.136,-2.8 3.528,-5.32 0.672,-3.696 1.568,-11.144 1.568,-13.104 z m -10.808,1.96 c -0.28,1.176 -0.504,1.736 -1.512,3.92 -0.392,0.84 -2.408,5.04 -3.304,5.04 -0.28,0 -0.392,-0.616 -0.392,-1.568 0,-3.528 1.624,-11.648 4.368,-12.656 0.112,-0.056 0.224,-0.056 0.336,-0.056 0.728,0 1.288,1.008 1.68,1.736 -0.392,0.84 -0.728,1.568 -1.176,3.584 z"
       style="font-weight:400;font-size:56px;font-family:brimstone;-inkscape-font-specification:'brimstone, Normal';fill:url(#linearGradient1942);fill-opacity:1"
       id="path23" /><path
       d="m 492.943,301.885 c -0.896,2.744 -3.304,3.696 -6.496,3.696 -1.68,0 -3.64,-0.28 -5.6,-0.728 v -0.896 c -0.056,-0.896 -0.28,-2.576 -0.392,-2.968 -0.168,-0.56 -0.784,-1.232 -1.624,-1.232 -0.392,0 -0.84,0.168 -1.288,0.672 -0.84,0.896 -1.456,2.016 -1.848,3.136 -0.784,-0.224 -1.512,-0.448 -2.24,-0.672 -4.368,-1.288 -8.792,-2.744 -12.824,-2.744 -3.36,0 -6.384,1.008 -8.848,3.864 -0.224,0.28 -0.336,0.56 -0.336,0.84 0,0.672 0.56,1.12 1.12,1.12 0.336,0 0.672,-0.112 0.896,-0.448 1.904,-2.744 4.536,-3.696 7.616,-3.696 3.472,0 7.616,1.232 11.928,2.576 l 2.184,0.672 c -0.28,1.008 -0.392,1.792 -0.448,1.96 -0.28,1.512 -0.392,3.248 -0.392,5.04 0,8.344 2.8,18.48 8.12,19.936 0.28,0.056 0.504,0.112 0.784,0.112 4.48,0 4.704,-12.432 6.328,-16.128 0.056,-0.168 0.112,-0.28 0.112,-0.392 0,-0.504 -0.448,-0.84 -0.896,-0.84 -0.28,0 -0.56,0.112 -0.728,0.336 -0.896,1.12 -2.408,13.384 -4.536,14.896 -0.056,0 -0.112,0.056 -0.112,0.056 -0.056,0 -0.112,-0.112 -0.224,-0.28 -1.96,-3.472 -2.184,-18.872 -2.24,-22.904 0,-0.112 0,-0.28 -0.056,-0.448 2.184,0.448 4.368,0.728 6.328,0.728 4.2,0 7.448,-1.288 8.176,-5.04 v -0.168 c 0,-0.56 -0.616,-1.064 -1.232,-1.064 -0.504,0 -1.008,0.28 -1.232,1.008 z"
       style="font-weight:400;font-size:56px;font-family:brimstone;-inkscape-font-specification:'brimstone, Normal';fill:url(#linearGradient1944);fill-opacity:1"
       id="path25" /><path
       d="m 503.583,314.99 c -0.168,-0.225 -0.448,-0.28 -0.728,-0.28 -0.224,0 -0.448,0.055 -0.616,0.223 -0.728,0.728 -4.424,12.04 -8.12,12.04 -0.224,0 -0.448,0 -0.672,-0.112 -1.232,-0.448 -1.568,-2.352 -1.568,-4.312 0,-1.512 0.168,-3.08 0.336,-4.088 4.144,0 6.608,-3.024 6.608,-5.656 0,-1.792 -1.12,-3.36 -3.528,-3.808 -0.392,-0.056 -0.784,-0.112 -1.176,-0.112 -4.928,0 -7.784,5.432 -7.784,10.64 0,4.256 1.904,8.344 6.16,9.352 0.392,0.112 0.728,0.112 1.064,0.112 4.648,0 7.784,-7.224 9.8,-12.432 0.28,-0.616 0.392,-0.952 0.392,-1.176 a 0.508,0.508 0 0 0 -0.168,-0.392 z m -8.736,-3.529 c 0.224,-0.112 0.448,-0.224 0.672,-0.224 0.336,0 0.672,0.168 0.84,0.448 0.28,0.448 0.448,0.896 0.448,1.344 0,1.96 -2.408,3.808 -3.752,3.808 -0.168,0 -0.392,-0.056 -0.504,-0.168 v -0.112 c 0,-0.728 1.176,-4.2 2.296,-5.096 z"
       style="font-weight:400;font-size:56px;font-family:brimstone;-inkscape-font-specification:'brimstone, Normal';fill:url(#linearGradient1946);fill-opacity:1"
       id="path27" /></g></svg>
