<?xml version="1.0" standalone="no"?>
<!DOCTYPE svg PUBLIC "-//W3C//DTD SVG 20010904//EN"
 "http://www.w3.org/TR/2001/REC-SVG-20010904/DTD/svg10.dtd">
<svg version="1.0" xmlns="http://www.w3.org/2000/svg"
 width="612.000000pt" height="141.000000pt" viewBox="0 0 612.000000 141.000000"
 preserveAspectRatio="xMidYMid meet">

<g transform="translate(0.000000,141.000000) scale(0.100000,-0.100000)"
fill="#000000" stroke="none">
<path d="M205 1222 c-128 -66 -175 -97 -175 -118 0 -22 16 -17 67 20 50 35
145 86 162 86 6 0 11 -142 13 -372 4 -391 7 -416 51 -465 56 -62 152 -18 205
94 19 40 25 41 40 8 13 -28 52 -34 71 -11 6 8 16 51 21 97 15 134 72 274 110
274 13 0 15 -25 15 -150 0 -102 4 -157 13 -172 29 -51 95 -69 140 -37 12 8 36
38 52 66 l29 52 6 -30 c25 -112 59 -164 123 -191 66 -27 126 4 180 96 l20 33
16 -30 c37 -72 111 -101 175 -68 55 29 127 134 160 236 11 35 11 35 72 35 59
0 60 0 55 -25 -17 -76 -18 -188 -2 -242 19 -66 44 -88 97 -88 52 0 89 35 125
114 16 36 32 66 35 66 3 0 11 -11 17 -25 13 -28 52 -34 71 -11 6 8 16 51 21
97 15 134 72 274 110 274 13 0 15 -25 15 -150 0 -102 4 -157 13 -172 29 -51
95 -69 140 -37 13 9 37 40 53 70 17 30 32 54 33 54 1 0 18 -20 38 -44 l37 -43
-25 -48 c-59 -118 5 -210 111 -159 82 39 97 132 36 216 l-32 43 33 28 c18 15
59 43 91 63 38 23 55 40 49 46 -12 12 -55 -9 -138 -68 l-61 -43 -32 53 c-43
71 -51 141 -21 179 36 46 90 31 90 -25 0 -21 5 -28 19 -28 28 0 34 15 21 55
-14 42 -35 55 -91 55 -88 0 -152 -71 -154 -174 -3 -88 -77 -232 -101 -194 -4
7 -11 71 -14 143 -7 148 -21 186 -71 204 -61 21 -116 -24 -153 -125 l-15 -39
0 78 c-1 73 -2 78 -26 87 -15 6 -34 6 -49 1 -28 -11 -36 -48 -36 -173 0 -64
-6 -107 -25 -165 -27 -87 -79 -177 -98 -170 -20 6 -19 114 3 237 19 109 19
116 2 128 -19 15 -71 11 -119 -9 -53 -22 -60 -2 -24 66 17 32 31 72 31 90 0
83 -87 114 -155 54 -60 -53 -71 -144 -24 -203 18 -23 19 -30 9 -64 -22 -65
-80 -168 -116 -203 -34 -33 -36 -33 -50 -14 -26 35 -37 97 -30 179 6 85 16
106 51 106 29 0 75 43 75 70 0 82 -122 93 -186 17 -37 -44 -55 -90 -65 -170
-6 -49 -20 -91 -50 -149 -44 -84 -76 -111 -103 -89 -21 17 -45 93 -52 166 -6
62 -6 64 45 154 63 112 95 182 130 286 l28 80 69 18 c38 10 110 21 161 24 106
6 139 -6 145 -54 4 -34 33 -43 43 -13 9 29 -19 68 -60 86 -44 18 -142 18 -230
-2 -38 -8 -82 -17 -96 -20 -25 -6 -26 -4 -32 42 -7 65 -43 98 -99 91 -21 -3
-50 -12 -64 -21 -35 -24 -91 -103 -111 -158 -20 -55 -46 -64 -133 -48 -69 13
-99 33 -107 70 -6 34 -43 44 -43 12 0 -53 78 -101 182 -109 l70 -6 -7 -36 c-4
-20 -11 -94 -14 -166 -7 -123 -9 -134 -43 -201 -41 -79 -62 -102 -74 -82 -4 7
-11 71 -14 143 -7 148 -21 186 -71 204 -61 21 -116 -24 -153 -125 l-15 -39 0
78 c-1 73 -2 78 -26 87 -15 6 -34 6 -49 1 -29 -12 -36 -48 -36 -191 0 -99 -2
-110 -34 -175 -39 -82 -82 -128 -96 -105 -6 9 -10 192 -10 433 0 393 1 418 18
415 12 -2 17 -13 17 -38 0 -45 30 -54 46 -14 14 38 -2 71 -38 77 -102 20 -113
18 -228 -41z m1075 -22 c6 -12 10 -39 8 -62 -3 -43 -3 -43 -96 -72 l-22 -7 20
52 c23 57 56 109 70 109 5 0 14 -9 20 -20z m-24 -214 c-14 -42 -49 -120 -76
-174 l-51 -97 5 105 c3 58 10 128 16 157 11 51 12 52 68 71 31 11 58 18 60 17
2 -2 -8 -37 -22 -79z m528 -82 c3 -9 6 -25 6 -35 0 -25 -40 -119 -50 -119 -20
0 -26 90 -9 139 12 33 42 43 53 15z m-241 -96 c8 -21 -10 -55 -32 -61 -25 -6
-26 4 -6 43 16 32 30 38 38 18z m1157 -414 c0 -46 -16 -74 -41 -74 -35 0 -45
43 -25 107 l18 57 24 -27 c15 -18 24 -41 24 -63z"/>
<path d="M4135 1242 c-100 -61 -164 -238 -165 -455 0 -95 -1 -98 -26 -107 -39
-15 -43 -13 -49 28 -21 125 -68 182 -152 182 -35 0 -50 -6 -81 -34 -36 -33
-37 -37 -38 -108 -3 -120 -79 -279 -159 -328 l-38 -23 -18 22 c-57 70 -51 280
11 402 22 42 43 54 61 33 9 -12 10 -37 3 -104 -6 -64 -6 -91 2 -94 23 -9 33
13 44 97 13 105 3 136 -48 151 -51 14 -102 -6 -155 -63 -57 -61 -79 -130 -79
-246 -1 -68 3 -92 23 -132 33 -66 80 -96 141 -90 66 6 118 43 170 122 l43 66
6 -33 c12 -71 50 -108 113 -108 32 0 45 7 75 38 35 37 71 117 71 158 0 15 10
24 37 32 45 14 53 9 53 -31 0 -44 24 -130 47 -170 44 -75 143 -101 201 -53 16
14 43 52 61 85 l32 61 34 -35 c67 -66 139 -55 174 28 l18 42 6 -40 c10 -59 50
-112 95 -126 56 -16 93 6 145 88 l42 65 6 -31 c13 -65 60 -102 86 -68 6 6 18
46 28 87 32 139 91 280 115 280 6 0 10 -55 10 -140 0 -139 0 -140 24 -146 41
-10 66 4 66 36 0 56 48 184 86 228 19 23 40 40 45 36 12 -7 11 -117 -2 -208
-14 -94 -6 -141 31 -178 50 -49 104 -29 161 60 l28 44 7 -28 c13 -55 33 -84
58 -84 36 0 46 20 56 111 15 134 72 274 110 274 13 0 15 -25 15 -150 0 -102 4
-157 13 -172 31 -54 99 -69 146 -32 24 19 106 173 106 198 0 6 -9 11 -19 11
-14 0 -29 -21 -57 -80 -41 -88 -67 -120 -80 -98 -4 7 -11 71 -14 143 -7 148
-21 186 -71 204 -61 21 -116 -24 -153 -125 l-15 -39 0 78 c-1 73 -2 78 -26 87
-15 6 -34 6 -49 1 -27 -11 -36 -48 -36 -155 0 -57 -5 -78 -30 -125 -17 -31
-41 -69 -54 -86 l-25 -30 1 140 c0 152 -9 193 -56 240 -14 14 -36 25 -50 25
-33 0 -82 -43 -108 -94 l-21 -41 -14 47 c-13 46 -51 88 -80 88 -33 0 -74 -33
-97 -78 l-24 -47 5 62 c6 61 5 63 -22 73 -31 12 -57 6 -75 -15 -6 -7 -16 -60
-21 -116 -8 -90 -15 -112 -50 -179 -44 -86 -89 -136 -113 -127 -13 5 -16 25
-16 104 0 53 5 134 12 179 14 95 6 114 -46 114 -46 0 -62 -17 -76 -80 -19 -84
-68 -233 -84 -255 -11 -16 -16 -17 -29 -6 -25 20 -31 115 -17 235 15 122 12
128 -50 124 -47 -4 -59 -31 -69 -165 -6 -95 -12 -117 -44 -185 -20 -42 -49
-86 -64 -98 l-28 -22 -22 26 c-26 31 -41 78 -49 162 -6 59 -5 64 36 134 151
259 209 498 130 540 -30 16 -92 12 -125 -8z m115 -96 c0 -66 -37 -181 -98
-305 l-56 -116 -4 45 c-10 121 39 339 95 424 l26 40 18 -23 c12 -14 19 -39 19
-65z m-446 -318 c26 -35 46 -96 46 -140 0 -26 -3 -28 -42 -28 -60 0 -71 10
-63 53 7 34 5 38 -21 47 -15 6 -33 9 -41 6 -21 -8 -16 38 8 68 31 39 80 36
113 -6z m16 -198 c28 0 28 0 18 -42 -18 -84 -73 -157 -99 -131 -13 13 -24 122
-15 158 6 24 10 27 38 21 17 -3 43 -6 58 -6z"/>
</g>
</svg>
