<?xml version="1.0" standalone="no"?>
<!DOCTYPE svg PUBLIC "-//W3C//DTD SVG 20010904//EN"
 "http://www.w3.org/TR/2001/REC-SVG-20010904/DTD/svg10.dtd">
<svg version="1.0" xmlns="http://www.w3.org/2000/svg"
 width="600.000000pt" height="600.000000pt" viewBox="0 0 600.000000 600.000000"
 preserveAspectRatio="xMidYMid meet">

<g transform="translate(0.000000,600.000000) scale(0.100000,-0.100000)"
fill="gray" stroke="none">
<path d="M2920 5801 c-116 -36 -187 -139 -178 -260 5 -73 43 -139 106 -185 38
-27 54 -31 121 -34 68 -4 84 -1 128 22 92 46 152 150 139 239 -9 56 -57 139
-101 173 -63 48 -147 65 -215 45z m127 -173 c63 -52 15 -158 -70 -158 -28 0
-87 60 -87 88 1 26 25 63 51 79 27 15 83 11 106 -9z"/>
<path d="M3198 5235 c-37 -8 -96 -27 -132 -44 -35 -17 -71 -31 -79 -31 -8 0
-43 13 -78 30 -86 40 -156 53 -268 48 -82 -3 -106 -8 -161 -35 -173 -82 -240
-218 -227 -462 9 -168 91 -443 135 -449 11 -2 148 36 303 83 208 64 291 86
316 82 36 -6 474 -139 536 -162 20 -8 41 -15 45 -15 5 0 23 37 40 83 161 421
119 715 -121 832 -65 31 -168 56 -222 54 -11 0 -50 -7 -87 -14z m-381 -170
c18 -8 33 -18 33 -24 0 -5 -19 -33 -43 -63 -99 -123 -135 -183 -206 -338 -95
-206 -126 -211 -172 -25 -27 106 -31 251 -10 305 33 80 91 135 169 157 55 15
179 9 229 -12z m613 -5 c77 -39 123 -114 137 -221 12 -95 -41 -329 -79 -353
-26 -16 -59 23 -97 110 -49 113 -142 274 -209 361 -34 44 -62 82 -62 86 0 6
74 34 110 41 49 9 161 -4 200 -24z m-367 -206 c88 -117 185 -294 162 -294 -3
0 -60 16 -126 36 l-120 35 -107 -35 c-150 -50 -151 -50 -106 32 75 137 201
312 224 312 5 0 38 -39 73 -86z"/>
<path d="M913 4774 c-55 -12 -65 -73 -33 -195 42 -164 158 -311 300 -381 84
-42 207 -76 290 -80 l55 -3 -1 46 c0 25 -6 59 -13 76 -12 29 -18 32 -95 46
-190 35 -343 163 -381 320 -7 26 -6 27 31 27 61 0 201 -37 271 -72 68 -33 149
-110 181 -174 49 -97 63 -163 69 -336 4 -111 3 -168 -4 -168 -6 0 -21 8 -34
19 -96 75 -277 118 -419 100 -161 -20 -260 -120 -260 -264 0 -111 66 -202 168
-231 66 -19 125 -12 200 23 63 30 86 59 76 99 -16 67 -48 77 -141 44 -77 -27
-97 -25 -127 11 -34 40 -33 71 5 113 78 90 302 65 426 -47 46 -42 88 -116 98
-172 16 -84 50 -116 109 -101 56 14 56 12 56 342 l0 304 28 6 c58 12 160 44
205 64 65 29 104 64 135 124 85 164 -36 365 -206 342 -89 -12 -149 -76 -124
-132 18 -39 54 -50 114 -34 49 12 52 12 70 -10 25 -31 15 -87 -22 -122 -30
-28 -183 -83 -206 -74 -7 3 -20 28 -28 56 -41 138 -163 290 -284 353 -119 62
-190 79 -347 82 -77 2 -150 1 -162 -1z"/>
<path d="M4775 4764 c-94 -20 -238 -92 -306 -153 -65 -58 -130 -160 -160 -252
-12 -35 -25 -68 -30 -73 -10 -11 -128 18 -180 44 -21 11 -45 30 -53 42 -21 30
-20 81 2 108 18 23 19 23 70 6 47 -16 53 -16 75 -1 14 9 30 29 37 45 16 39 -4
71 -63 102 -130 67 -278 -21 -294 -176 -9 -87 11 -141 76 -207 59 -59 134 -94
252 -118 l56 -12 7 -147 c4 -81 6 -218 6 -304 -1 -86 1 -162 5 -167 3 -6 24
-15 47 -22 61 -16 83 -2 98 63 18 78 67 163 121 212 82 74 248 115 348 86 100
-28 129 -135 47 -174 -29 -14 -38 -13 -115 7 l-83 22 -24 -28 c-46 -54 -22
-108 68 -147 78 -34 169 -34 228 2 145 85 172 235 69 379 -49 69 -133 99 -275
99 -135 0 -249 -33 -331 -96 -18 -14 -38 -22 -43 -19 -17 11 -12 289 6 364 54
219 212 348 460 375 90 10 94 2 48 -89 -67 -133 -184 -217 -351 -252 -43 -9
-84 -21 -90 -27 -7 -7 -16 -39 -19 -74 -6 -53 -4 -62 11 -68 23 -9 180 21 249
47 140 52 274 167 331 284 64 129 88 276 52 312 -25 25 -250 29 -352 7z"/>
<path d="M2570 4161 c-206 -65 -433 -135 -505 -156 -71 -21 -133 -43 -137 -49
-4 -6 -8 -391 -7 -856 0 -678 2 -860 14 -923 27 -156 139 -324 274 -416 47
-32 173 -104 481 -274 30 -16 89 -49 131 -73 152 -88 193 -90 324 -20 452 241
685 378 746 439 109 109 173 245 189 404 7 62 10 398 8 908 l-3 809 -25 13
c-14 7 -95 33 -180 57 -85 25 -231 68 -325 96 -349 105 -551 160 -580 159 -16
0 -199 -54 -405 -118z m593 -92 c279 -82 392 -116 582 -173 l180 -53 2 -759
c2 -438 -1 -794 -7 -843 -15 -129 -78 -242 -182 -327 -43 -35 -577 -341 -689
-395 l-46 -22 -99 53 c-54 29 -144 79 -199 110 -113 64 -145 82 -300 166 -177
95 -282 222 -314 376 -8 36 -10 305 -9 847 l3 794 255 79 c140 44 327 101 415
128 88 27 171 53 185 59 37 15 37 15 223 -40z"/>
<path d="M2945 3823 c-69 -36 -165 -136 -195 -204 l-25 -56 -90 1 c-100 0
-193 -22 -225 -54 -16 -16 -20 -34 -20 -94 0 -182 100 -341 263 -420 40 -19
83 -36 97 -38 25 -3 25 -2 28 72 l2 75 -60 29 c-88 42 -147 117 -169 217 -12
54 -6 59 71 59 118 0 224 -66 277 -172 l31 -61 0 -389 0 -388 -155 0 -155 0 0
-80 0 -80 155 0 155 0 0 -75 0 -75 -155 0 -155 0 0 -80 0 -80 235 0 235 0 0
510 0 510 80 0 c263 0 460 201 460 468 l0 90 -50 21 c-70 30 -153 44 -220 36
l-57 -7 -27 57 c-38 76 -122 165 -194 203 -33 18 -66 32 -73 32 -8 -1 -36 -13
-64 -27z m111 -175 c62 -55 118 -158 85 -158 -5 0 -37 -28 -71 -61 l-61 -62
-47 50 c-26 27 -58 57 -71 66 -22 14 -22 18 -11 53 13 38 107 144 128 144 6 0
28 -15 48 -32z m416 -278 c-7 -90 -66 -177 -152 -224 -43 -24 -68 -30 -143
-34 l-90 -5 6 47 c9 63 40 120 93 172 61 58 129 84 219 81 l70 -2 -3 -35z"/>
<path d="M1338 3386 c-62 -17 -146 -73 -191 -128 -69 -84 -103 -199 -94 -317
5 -63 13 -91 51 -166 55 -111 116 -180 255 -289 59 -46 123 -102 144 -125 79
-88 106 -193 58 -232 -43 -35 -121 -17 -121 28 0 8 11 28 25 45 31 37 32 69 1
104 -18 21 -32 28 -61 28 -32 0 -44 -7 -75 -42 -80 -89 -70 -191 27 -284 45
-43 79 -58 136 -58 179 0 287 137 244 306 -32 126 -123 239 -287 360 -158 116
-229 221 -238 350 -4 62 -1 79 21 125 46 99 117 149 208 149 110 0 197 -77
186 -162 -11 -80 -91 -113 -165 -68 -72 44 -140 5 -128 -73 15 -89 105 -212
194 -264 49 -29 137 -53 195 -53 48 0 77 28 77 75 0 48 -25 69 -101 84 -122
24 -135 39 -64 72 93 44 145 128 145 235 0 86 -15 135 -58 184 -93 109 -242
154 -384 116z"/>
<path d="M4465 3391 c-16 -4 -49 -17 -72 -29 -209 -108 -217 -416 -14 -513 28
-13 50 -28 48 -34 -2 -5 -41 -18 -88 -27 -66 -13 -89 -23 -106 -43 -29 -33
-29 -44 0 -86 28 -42 69 -48 168 -24 153 38 279 183 279 322 0 32 -5 46 -22
57 -30 22 -43 20 -116 -11 -73 -31 -99 -25 -132 29 -41 67 -15 146 60 186 37
19 56 23 111 20 56 -3 72 -9 114 -38 29 -22 60 -56 79 -90 28 -49 31 -64 31
-135 0 -70 -4 -89 -32 -145 -41 -82 -95 -139 -210 -217 -158 -108 -242 -210
-278 -337 -31 -106 -4 -201 77 -270 111 -96 269 -63 334 70 23 47 26 63 21
114 -6 68 -28 110 -69 134 -73 44 -153 -41 -103 -108 34 -45 6 -106 -48 -106
-20 0 -33 9 -47 33 -26 42 -25 71 4 132 32 65 89 124 207 212 240 179 328 342
300 548 -21 146 -109 274 -228 331 -47 22 -75 28 -148 30 -49 2 -103 0 -120
-5z"/>
<path d="M1805 1919 c-156 -84 -255 -194 -297 -332 -27 -89 -21 -221 13 -314
12 -35 20 -65 17 -68 -12 -12 -123 -24 -167 -18 -60 8 -94 26 -125 65 -49 65
-46 126 7 158 17 11 46 20 64 20 57 0 97 85 58 124 -40 40 -151 31 -222 -18
-125 -86 -136 -266 -22 -390 89 -97 215 -138 364 -116 44 7 95 18 113 26 44
19 49 18 104 -11 240 -128 548 -12 599 225 12 58 12 58 114 7 132 -67 222
-134 251 -189 8 -15 14 -52 14 -84 0 -50 -3 -59 -34 -90 -40 -40 -52 -41 -96
-11 -42 28 -57 69 -41 112 16 46 0 82 -46 101 -62 27 -102 -9 -117 -103 -10
-69 10 -136 57 -189 126 -144 332 -117 413 53 24 51 26 65 22 147 -5 99 -17
131 -75 203 -68 84 -416 283 -495 283 -51 0 -94 -40 -102 -96 -19 -125 -26
-148 -58 -181 -104 -107 -280 -111 -384 -8 -88 88 -112 247 -54 362 17 34 53
81 81 108 69 64 79 55 79 -75 0 -113 -15 -170 -65 -251 -40 -66 -39 -77 16
-123 43 -37 71 -34 108 13 63 80 101 210 101 350 0 108 -38 272 -72 308 -27
29 -70 30 -123 2z"/>
<path d="M4087 1922 c-26 -29 -53 -124 -67 -241 -19 -158 9 -285 94 -419 31
-50 54 -53 109 -17 31 22 37 31 37 62 0 23 -8 45 -20 58 -29 31 -59 123 -65
202 -7 79 5 165 22 170 19 7 108 -89 139 -148 24 -47 27 -65 27 -145 0 -99
-11 -133 -64 -197 -86 -105 -249 -127 -362 -50 -51 35 -102 138 -94 189 8 47
-15 88 -59 109 -58 27 -85 19 -249 -70 -193 -105 -229 -129 -292 -199 -43 -46
-53 -66 -68 -126 -28 -113 -8 -211 57 -285 97 -110 257 -115 359 -11 75 77 92
225 34 300 -21 28 -79 25 -112 -5 -23 -22 -24 -28 -18 -90 6 -61 5 -68 -16
-88 -104 -96 -212 56 -129 180 16 25 49 59 72 76 49 35 244 143 258 143 5 0
16 -22 24 -48 23 -79 52 -126 108 -177 84 -76 143 -98 263 -99 104 -1 140 7
232 52 51 25 53 25 96 8 64 -24 188 -36 266 -25 86 12 159 48 211 105 64 69
83 121 78 214 -3 68 -7 84 -33 121 -48 69 -101 100 -179 106 -103 9 -141 -32
-104 -111 10 -23 57 -46 95 -46 6 0 25 -12 42 -26 38 -32 40 -62 6 -120 -38
-64 -96 -89 -208 -88 -62 0 -91 4 -97 14 -5 8 2 39 17 79 48 128 41 257 -22
389 -42 88 -111 160 -213 221 -87 52 -147 64 -175 33z"/>
<path d="M2917 746 c-97 -36 -157 -124 -157 -230 0 -74 26 -131 82 -181 52
-48 95 -65 160 -65 92 1 193 64 229 145 23 50 24 142 4 193 -18 43 -77 107
-118 128 -41 22 -154 28 -200 10z m154 -176 c24 -23 28 -35 23 -57 -10 -44
-30 -69 -65 -83 -41 -18 -77 0 -102 51 -45 93 69 164 144 89z"/>
</g>
</svg>
