<svg width="263.48" height="50.008" viewBox="0 0 69.712 13.231" xml:space="preserve" xmlns="http://www.w3.org/2000/svg"><defs><path id="a" d="M109.637 280.816h545.355v279.74H109.637z"/></defs><g aria-label="the Articulate" transform="matrix(.26458 0 0 .26458 -63.572 -75.977)" style="font-weight:700;font-size:3px;font-family:'Helvetica Neue';-inkscape-font-specification:'Helvetica Neue, Bold';text-align:center;white-space:pre;shape-inside:url(#a);fill:#018c4b"><path d="M281.766 301.885c-.896 2.744-3.304 3.696-6.496 3.696-1.68 0-3.64-.28-5.6-.728v-.896c-.056-.896-.28-2.576-.392-2.968-.168-.56-.784-1.232-1.624-1.232-.392 0-.84.168-1.288.672-.84.896-1.456 2.016-1.848 3.136-.784-.224-1.512-.448-2.24-.672-4.368-1.288-8.792-2.744-12.824-2.744-3.36 0-6.384 1.008-8.848 3.864-.224.28-.336.56-.336.84 0 .672.56 1.12 1.12 1.12.336 0 .672-.112.896-.448 1.904-2.744 4.536-3.696 7.616-3.696 3.472 0 7.616 1.232 11.928 2.576l2.184.672c-.28 1.008-.392 1.792-.448 1.96-.28 1.512-.392 3.248-.392 5.04 0 8.344 2.8 18.48 8.12 19.936.28.056.504.112.784.112 4.48 0 4.704-12.432 6.328-16.128.056-.168.112-.28.112-.392 0-.504-.448-.84-.896-.84-.28 0-.56.112-.728.336-.896 1.12-2.408 13.384-4.536 14.896-.056 0-.112.056-.112.056-.056 0-.112-.112-.224-.28-1.96-3.472-2.184-18.872-2.24-22.904 0-.112 0-.28-.056-.448 2.184.448 4.368.728 6.328.728 4.2 0 7.448-1.288 8.176-5.04v-.168c0-.56-.616-1.064-1.232-1.064-.504 0-1.008.28-1.232 1.008z" style="font-weight:400;font-size:56px;font-family:brimstone;-inkscape-font-specification:'brimstone, Normal';fill:#018c4b"/><path d="M298.678 315.325c-1.288 2.296-4.312 16.296-7.616 19.6-.28-1.008-.392-2.128-.392-3.304 0-5.544 2.52-12.6 2.52-16.912 0-.56-.056-1.12-.168-1.568-.28-1.176-.952-2.072-1.96-2.52-.504-.224-.952-.336-1.344-.336-1.68 0-2.688 1.68-3.92 3.584-2.52 3.752-3.64 6.72-3.64 6.72-.336 0-.784-8.792-.784-9.128l.448-.28c1.624-1.008 4.032-3.416 5.544-5.488 2.296-3.248 3.752-7.56 3.752-10.864 0-.784-.112-1.568-.28-2.24-.616-2.184-2.296-3.416-4.312-3.416-.616 0-1.232.112-1.848.336-6.048 2.072-9.184 11.928-9.184 22.344 0 5.6.896 11.312 2.744 16.128.448 1.12 1.568 1.68 2.632 1.68 1.232 0 2.296-.728 2.296-2.296v-.336c-.056-.784-.112-1.232-.112-1.568 0-.336.056-.56.112-.896.784-3.584 2.688-7.056 3.136-7.616-.224.616-.672 3.92-.672 7.672 0 5.432.896 11.872 4.592 12.488.168.056.336.056.504.056 4.872 0 6.552-12.88 9.8-21.336.056-.112.056-.224.056-.28 0-.448-.448-.784-.952-.784a1.1 1.1 0 0 0-.952.56zm-17.136-7.616c.448-4.704 1.68-14.392 6.048-16.128.896 1.008 1.288 2.408 1.288 3.976 0 3.304-1.68 7.224-3.64 9.8a19.32 19.32 0 0 1-3.304 3.472l-.448.336s-.056-.056-.056-.168c0-.224.056-.616.112-1.288z" style="font-weight:400;font-size:56px;font-family:brimstone;-inkscape-font-specification:'brimstone, Normal';fill:#018c4b"/><path d="M313.742 314.99c-.168-.225-.448-.28-.728-.28-.224 0-.448.055-.616.223-.728.728-4.424 12.04-8.12 12.04-.224 0-.448 0-.672-.112-1.232-.448-1.568-2.352-1.568-4.312 0-1.512.168-3.08.336-4.088 4.144 0 6.608-3.024 6.608-5.656 0-1.792-1.12-3.36-3.528-3.808-.392-.056-.784-.112-1.176-.112-4.928 0-7.784 5.432-7.784 10.64 0 4.256 1.904 8.344 6.16 9.352.392.112.728.112 1.064.112 4.648 0 7.784-7.224 9.8-12.432.28-.616.392-.952.392-1.176a.508.508 0 0 0-.168-.392zm-8.736-3.529c.224-.112.448-.224.672-.224.336 0 .672.168.84.448.28.448.448.896.448 1.344 0 1.96-2.408 3.808-3.752 3.808-.168 0-.392-.056-.504-.168v-.112c0-.728 1.176-4.2 2.296-5.096zM370.75 315.325c0 .056-4.872 12.824-5.656 14.448-1.064 2.24-1.904 3.192-2.464 3.192-1.064 0-1.456-2.856-1.456-6.72 0-3.696.392-8.344.896-12.376.504-3.92 1.344-9.352 1.344-14.28 0-5.432-1.008-10.304-4.592-11.984-.672-.336-1.344-.448-2.072-.448-4.76 0-10.472 6.048-12.992 10.248-2.856 4.704-4.424 9.632-5.6 17.416-.28 1.848-.112 1.456-1.232 2.128-4.536 3.024-6.16 7.336-6.16 10.976 0 3.192 1.232 5.824 2.8 6.608.448.224.84.336 1.176.336 3.584 0 3.752-10.248 4.816-17.08.112-.784 4.032-1.904 7.84-1.904.784 0 1.568.056 2.296.168 1.456.168 4.2.84 4.368 1.008 0 0 .112 4.088.56 6.552.672 4.032 3.192 10.64 6.832 11.592.224.056.504.112.728.112 5.208 0 7.784-14.56 10.192-19.152.056-.112.112-.28.112-.392 0-.448-.448-.784-.952-.784-.28 0-.56.112-.784.336zm-34.272 11.816c-.504 3.528-.952 4.984-1.68 5.768-.056.056-.112.112-.224.112-.616 0-1.68-2.072-1.68-4.928 0-2.24.672-4.928 2.8-7.448.56-.616 1.68-1.736 1.848-1.736 0 .448-.784 6.496-1.064 8.232zm17.696-12.6c0 .56 0 .672-.056.672h-.056c-1.68-.672-4.312-1.008-6.944-1.008-2.296 0-4.592.224-6.272.84-.336.112-.56.224-.672.224-.112 0-.168-.056-.168-.28 0-.504.224-1.624.728-4.088 3.192-16.016 12.488-21.392 15.12-21.392.672 0 .896.728.896 1.96 0 3.976-2.576 13.496-2.576 23.072z" style="font-weight:400;font-size:56px;font-family:brimstone;-inkscape-font-specification:'brimstone, Normal';fill:#018c4b"/><path d="M384.974 315.325c-.168-.28-.56-.448-.896-.448-.168 0-.336 0-.504.112-.28.224-.336.28-.672 1.624-.504 1.848-2.688 9.576-4.144 10.808a.425.425 0 0 1-.224.112c-.392 0-.504-1.344-.504-3.136 0-2.632.28-6.272.28-8.064 0-.616-.056-1.008-.112-1.12-.28-.448-.784-.84-1.568-.84-.504 0-1.12.168-1.848.672-.84-.896-1.176-1.12-1.176-1.4 0-.168.112-.336.28-.616 1.68-2.576 2.688-5.936 2.688-8.68 0-2.128-.616-3.864-1.848-4.592-.392-.224-.896-.336-1.456-.336-1.064 0-2.296.448-3.584 1.68-1.624 1.624-3.024 4.312-3.024 7.28 0 2.912 1.344 5.992 5.04 8.568.336.224.672.448.672.504 0 0-.056.84-.056 1.904 0 .672 0 1.456.112 2.128.504 4.648 2.352 7.672 4.872 8.12.28.056.504.056.728.056 2.576 0 3.472-2.408 4.424-5.32.224-.504 2.52-7.728 2.52-8.904zm-11.816-4.872c-.224.448-.392.84-.448.896-.056.056-.056.056-.112.056-.224 0-.392-1.176-.392-2.8 0-2.072.28-4.816 1.344-6.496l.224-.336c.28 0 .728 1.176.728 2.968 0 1.512-.336 3.528-1.344 5.712z" style="font-weight:400;font-size:56px;font-family:brimstone;-inkscape-font-specification:'brimstone, Normal';fill:#018c4b"/><path d="M400.654 301.885c-.896 2.744-3.304 3.696-6.496 3.696-1.68 0-3.64-.28-5.6-.728v-.896c-.056-.896-.28-2.576-.392-2.968-.168-.56-.784-1.232-1.624-1.232-.392 0-.84.168-1.288.672-.84.896-1.456 2.016-1.848 3.136-.784-.224-1.512-.448-2.24-.672-4.368-1.288-8.792-2.744-12.824-2.744-3.36 0-6.384 1.008-8.848 3.864-.224.28-.336.56-.336.84 0 .672.56 1.12 1.12 1.12.336 0 .672-.112.896-.448 1.904-2.744 4.536-3.696 7.616-3.696 3.472 0 7.616 1.232 11.928 2.576l2.184.672c-.28 1.008-.392 1.792-.448 1.96-.28 1.512-.392 3.248-.392 5.04 0 8.344 2.8 18.48 8.12 19.936.28.056.504.112.784.112 4.48 0 4.704-12.432 6.328-16.128.056-.168.112-.28.112-.392 0-.504-.448-.84-.896-.84-.28 0-.56.112-.728.336-.896 1.12-2.408 13.384-4.536 14.896-.056 0-.112.056-.112.056-.056 0-.112-.112-.224-.28-1.96-3.472-2.184-18.872-2.24-22.904 0-.112 0-.28-.056-.448 2.184.448 4.368.728 6.328.728 4.2 0 7.448-1.288 8.176-5.04v-.168c0-.56-.616-1.064-1.232-1.064-.504 0-1.008.28-1.232 1.008z" style="font-weight:400;font-size:56px;font-family:brimstone;-inkscape-font-specification:'brimstone, Normal';fill:#018c4b"/><path d="M406.535 315.101c-.336 3.024-2.128 13.776-4.312 13.776-1.68 0-2.072-4.704-2.072-9.296 0-3.192.168-6.384.168-7.784v-.672c-.224-1.68-1.288-2.352-2.352-2.352-.336 0-.672.056-.952.168-.952.336-1.456 1.12-1.904 2.912a21.987 21.987 0 0 0-.672 5.32c0 7 3.472 12.768 6.608 13.552.28.056.56.112.84.112.504 0 .952-.112 1.4-.336 3.08-1.512 4.48-12.992 4.592-15.176v-.056c0-.392-.392-.616-.784-.616-.28 0-.56.112-.56.448zm-9.128-7.616c.28.056.504.112.728.112 1.568 0 2.856-1.4 3.024-2.408v-.392c0-1.568-1.4-2.52-2.744-2.52-1.12 0-2.184.56-2.576 1.792a3.171 3.171 0 0 0-.168 1.008c0 1.064.616 2.016 1.736 2.408z" style="font-weight:400;font-size:56px;font-family:brimstone;-inkscape-font-specification:'brimstone, Normal';fill:#018c4b"/><path d="M421.879 315.101c-3.976 6.272-10.416 12.712-11.424 12.712-.056 0-.112 0-.112-.056-.448-.616-.672-1.792-.672-3.304 0-3.752 1.4-9.24 4.368-11.48.112-.056.224-.112.28-.112.168 0 .168.224.168.728v1.456c.392.336.728.504 1.064.504a.9.9 0 0 0 .616-.28c.392-.448.672-1.288.672-2.128 0-1.68-1.008-3.528-3.696-3.528-5.768 0-9.072 7.112-9.072 13.048 0 3.808 1.344 7.112 4.256 7.896.224.056.448.112.672.112 3.752 0 10.08-8.12 14.448-14.672.112-.168.168-.28.168-.448 0-.448-.504-.784-1.008-.784-.224 0-.504.112-.728.336z" style="font-weight:400;font-size:56px;font-family:brimstone;-inkscape-font-specification:'brimstone, Normal';fill:#018c4b"/><path d="M443.886 315.493c0 .784-4.032 13.608-5.04 13.608-.112 0-.448-1.288-.616-2.464-.84-6.104.224-13.496-1.848-16.072-.392-.504-1.176-.896-2.016-.896-.784 0-1.624.392-2.184 1.512-.952 1.96-1.008 3.696-1.008 6.552v.896c-1.456 2.856-2.856 5.768-4.032 6.72-.112.112-.224.168-.28.168-.112 0-.168-.112-.28-.504-.28-.84-.392-2.016-.392-3.36 0-2.352.28-5.096.448-6.664.168-1.624.224-2.52.224-3.192 0-.336 0-.616-.056-.896-.28-2.072-1.568-3.08-2.856-3.08-.952 0-1.848.504-2.464 1.4-.952 1.456-1.456 4.088-1.456 6.888 0 4.984 1.568 10.64 5.264 11.872.448.168.896.224 1.288.224 1.792 0 3.248-1.568 4.816-5.208.112-.224.224-.448.28-.448 0 0 .112.448.28 1.008.728 3.136 2.8 7.504 5.992 8.288h-.056c.224.056.448.112.672.112 1.96 0 3.024-2.464 3.752-4.536.728-1.904 3.192-10.304 3.416-11.256 0-.112.056-.28.056-.392 0-.784-.56-1.176-1.064-1.176-.392 0-.84.28-.84.896z" style="font-weight:400;font-size:56px;font-family:brimstone;-inkscape-font-specification:'brimstone, Normal';fill:#018c4b"/><path d="M459.623 314.933c-.504.056-.728.336-1.008 1.008-.896 2.408-3.304 9.408-5.432 10.472a1.08 1.08 0 0 1-.56.168c-2.632 0-3.64-9.968-3.752-13.496.112 0 .224.056.392.056 3.696 0 9.688-9.184 9.688-16.24 0-2.632-1.064-4.704-2.968-5.6-.672-.336-1.456-.504-2.296-.504-1.568 0-3.36.616-5.208 2.184-4.2 3.584-5.936 10.024-5.936 16.464 0 9.016 3.472 18.088 8.4 19.376.392.112.728.168 1.064.168 1.568 0 3.024-.896 4.2-2.408.952-1.344 3.36-6.888 4.48-10.696 0-.056.056-.112.056-.224 0-.392-.448-.728-.952-.728zm-5.936-21.504c.224-.112.448-.168.672-.168.728 0 1.4.56 1.904 1.568.392.84.56 1.792.56 2.8 0 5.768-5.432 13.664-7.672 13.664-.056 0-.168-.056-.224-.056-.112-.056-.168-.448-.168-1.176 0-3.696 1.736-15.12 4.928-16.632z" style="font-weight:400;font-size:56px;font-family:brimstone;-inkscape-font-specification:'brimstone, Normal';fill:#018c4b"/><path d="M476.983 315.941c-.056-.784-.616-1.176-1.064-1.176-.28 0-.56.112-.672.392-.056.056-.112.504-.112 1.064-.056 1.512-1.68 15.96-3.192 15.96-2.184 0-.168-17.248-2.52-18.256-.168-.112-.28-.224-.504-.784-.728-1.456-1.68-2.296-3.08-2.688a5.78 5.78 0 0 0-1.68-.224c-4.984 0-8.68 6.328-8.68 11.76 0 3.024 1.12 5.824 3.752 7.112.616.28 1.176.448 1.736.448 2.408 0 3.752-2.912 4.648-4.704.56 3.304 2.352 9.184 5.768 9.744.168.056.336.056.504.056 2.296 0 3.136-2.8 3.528-5.32.672-3.696 1.568-11.144 1.568-13.104zm-10.808 1.96c-.28 1.176-.504 1.736-1.512 3.92-.392.84-2.408 5.04-3.304 5.04-.28 0-.392-.616-.392-1.568 0-3.528 1.624-11.648 4.368-12.656.112-.056.224-.056.336-.056.728 0 1.288 1.008 1.68 1.736-.392.84-.728 1.568-1.176 3.584z" style="font-weight:400;font-size:56px;font-family:brimstone;-inkscape-font-specification:'brimstone, Normal';fill:#018c4b"/><path d="M492.943 301.885c-.896 2.744-3.304 3.696-6.496 3.696-1.68 0-3.64-.28-5.6-.728v-.896c-.056-.896-.28-2.576-.392-2.968-.168-.56-.784-1.232-1.624-1.232-.392 0-.84.168-1.288.672-.84.896-1.456 2.016-1.848 3.136-.784-.224-1.512-.448-2.24-.672-4.368-1.288-8.792-2.744-12.824-2.744-3.36 0-6.384 1.008-8.848 3.864-.224.28-.336.56-.336.84 0 .672.56 1.12 1.12 1.12.336 0 .672-.112.896-.448 1.904-2.744 4.536-3.696 7.616-3.696 3.472 0 7.616 1.232 11.928 2.576l2.184.672c-.28 1.008-.392 1.792-.448 1.96-.28 1.512-.392 3.248-.392 5.04 0 8.344 2.8 18.48 8.12 19.936.28.056.504.112.784.112 4.48 0 4.704-12.432 6.328-16.128.056-.168.112-.28.112-.392 0-.504-.448-.84-.896-.84-.28 0-.56.112-.728.336-.896 1.12-2.408 13.384-4.536 14.896-.056 0-.112.056-.112.056-.056 0-.112-.112-.224-.28-1.96-3.472-2.184-18.872-2.24-22.904 0-.112 0-.28-.056-.448 2.184.448 4.368.728 6.328.728 4.2 0 7.448-1.288 8.176-5.04v-.168c0-.56-.616-1.064-1.232-1.064-.504 0-1.008.28-1.232 1.008z" style="font-weight:400;font-size:56px;font-family:brimstone;-inkscape-font-specification:'brimstone, Normal';fill:#018c4b"/><path d="M503.583 314.99c-.168-.225-.448-.28-.728-.28-.224 0-.448.055-.616.223-.728.728-4.424 12.04-8.12 12.04-.224 0-.448 0-.672-.112-1.232-.448-1.568-2.352-1.568-4.312 0-1.512.168-3.08.336-4.088 4.144 0 6.608-3.024 6.608-5.656 0-1.792-1.12-3.36-3.528-3.808-.392-.056-.784-.112-1.176-.112-4.928 0-7.784 5.432-7.784 10.64 0 4.256 1.904 8.344 6.16 9.352.392.112.728.112 1.064.112 4.648 0 7.784-7.224 9.8-12.432.28-.616.392-.952.392-1.176a.508.508 0 0 0-.168-.392zm-8.736-3.529c.224-.112.448-.224.672-.224.336 0 .672.168.84.448.28.448.448.896.448 1.344 0 1.96-2.408 3.808-3.752 3.808-.168 0-.392-.056-.504-.168v-.112c0-.728 1.176-4.2 2.296-5.096z" style="font-weight:400;font-size:56px;font-family:brimstone;-inkscape-font-specification:'brimstone, Normal';fill:#018c4b"/></g></svg>